<?xml version="1.0" encoding="UTF-8" standalone="no"?>
<svg
   xmlns:dc="http://purl.org/dc/elements/1.1/"
   xmlns:cc="http://creativecommons.org/ns#"
   xmlns:rdf="http://www.w3.org/1999/02/22-rdf-syntax-ns#"
   xmlns:svg="http://www.w3.org/2000/svg"
   xmlns="http://www.w3.org/2000/svg"
   xmlns:sodipodi="http://sodipodi.sourceforge.net/DTD/sodipodi-0.dtd"
   xmlns:inkscape="http://www.inkscape.org/namespaces/inkscape"
   width="356"
   height="222"
   viewBox="0 0 94.191742 58.737511"
   version="1.1"
   id="svg1034"
   inkscape:version="1.0.2 (e86c870879, 2021-01-15)"
   sodipodi:docname="gitea-logo.svg">
  <defs
     id="defs1028" />
  <sodipodi:namedview
     id="base"
     pagecolor="#ffffff"
     bordercolor="#666666"
     borderopacity="1.0"
     inkscape:pageopacity="0.0"
     inkscape:pageshadow="2"
     inkscape:zoom="0.88"
     inkscape:cx="400"
     inkscape:cy="180.3672"
     inkscape:document-units="mm"
     inkscape:current-layer="layer1"
     inkscape:document-rotation="0"
     showgrid="false"
     inkscape:window-width="1920"
     inkscape:window-height="1025"
     inkscape:window-x="0"
     inkscape:window-y="31"
     inkscape:window-maximized="1"
     units="px" />
  <metadata
     id="metadata1031">
    <rdf:RDF>
      <cc:Work
         rdf:about="">
        <dc:format>image/svg+xml</dc:format>
        <dc:type
           rdf:resource="http://purl.org/dc/dcmitype/StillImage" />
        <dc:title></dc:title>
      </cc:Work>
    </rdf:RDF>
  </metadata>
  <g
     inkscape:label="Warstwa 1"
     inkscape:groupmode="layer"
     id="layer1">
    <path
       fill="#609926"
       d="m 90.330196,1.3053074 c -15.345829,0.79375 -24.341659,1.32292 -32.014579,1.32292 V 19.82615 l -2.38125,-1.058342 V 2.6282274 c -8.995833,0 -16.668754,-0.52917 -31.485419,-1.32292 l -7.14375,-0.26458 c -7.14375,0 -16.66874913,5.0270799 -16.1395821,17.7270806 C 1.9593659,38.61156 19.951031,40.46365 27.359364,40.72823 28.153113,44.4324 36.61978,57.1324 42.969784,57.92615 H 70.486447 C 87.155196,56.60323 99.326028,1.5698974 90.330196,1.3053074 Z M 8.0447814,19.032398 C 7.2510314,13.476148 9.8968654,7.9198983 19.157281,7.9198983 19.951031,18.238648 21.803115,24.05948 24.978114,33.3199 16.511448,31.99698 9.3676984,29.35115 8.0447814,19.032398 Z M 70.486447,31.7324 l -7.67291,15.875 c -0.79375,1.85208 -3.43959,2.64583 -5.29167,1.85208 L 41.646864,41.78656 c -2.116668,-1.05833 -2.910418,-3.43958 -2.116668,-5.55625 l 7.937498,-15.875 c 0.79375,-2.116662 3.43959,-2.910412 5.29167,-1.852082 l 2.910423,1.322922 -2.116673,4.23333 c -1.45442,0.14102 -2.5191,1.43431 -2.37834,2.88872 a 2.6442458,2.6442458 0 0 0 0.52626,1.34461 l -3.70417,7.14375 c -1.46103,0.0241 -2.62599,1.22793 -2.60191,2.68896 0.006,0.34952 0.0807,0.6948 0.22066,1.01521 0.51488,1.36763 2.04099,2.05872 3.40863,1.54358 1.36763,-0.51514 2.05872,-2.041 1.54358,-3.40863 a 2.6458333,2.6458333 0 0 0 -0.71888,-1.04563 l 3.43959,-7.14375 c 0.74877,0.13626 1.52003,-0.0566 2.116663,-0.52917 l 0.26459,0.26459 c 2.64583,1.32291 4.23333,1.85208 4.49791,2.91041 0.52917,1.05834 -0.79375,3.43959 -2.91041,7.67292 v 0.26458 c -1.45071,-0.17621 -2.769403,0.85699 -2.945353,2.3077 -0.17594,1.45071 0.856993,2.76939 2.307703,2.94534 a 2.6482145,2.6482145 0 0 0 1.4314,-0.22595 c 1.36948,-0.50959 2.06639,-2.03306 1.5568,-3.40255 a 2.6431875,2.6431875 0 0 0 -0.49847,-0.83079 c 2.64583,-5.29166 3.70417,-7.67291 2.91042,-9.525 -0.52917,-1.5875 -2.38125,-2.38125 -5.55625,-3.96875 l -0.26459,-0.26458 a 2.6460979,2.6460979 0 0 0 -0.79375,-1.85208 l 2.11667,-4.23334 11.1125,5.55625 c 2.11667,1.0586 2.91042,3.43985 1.85208,5.55652 z"
       id="path1007"
       style="stroke-width:0.264583" />
  </g>
</svg>
