<?xml version="1.0" encoding="UTF-8" standalone="no"?>
<svg
   xmlns:dc="http://purl.org/dc/elements/1.1/"
   xmlns:cc="http://creativecommons.org/ns#"
   xmlns:rdf="http://www.w3.org/1999/02/22-rdf-syntax-ns#"
   xmlns:svg="http://www.w3.org/2000/svg"
   xmlns="http://www.w3.org/2000/svg"
   xmlns:sodipodi="http://sodipodi.sourceforge.net/DTD/sodipodi-0.dtd"
   xmlns:inkscape="http://www.inkscape.org/namespaces/inkscape"
   viewBox="0 0 127 116"
   version="1.1"
   id="svg3557"
   sodipodi:docname="gitlab-logo.svg"
   width="127"
   height="116"
   inkscape:version="1.0.2 (e86c870879, 2021-01-15)">
  <metadata
     id="metadata3563">
    <rdf:RDF>
      <cc:Work
         rdf:about="">
        <dc:format>image/svg+xml</dc:format>
        <dc:type
           rdf:resource="http://purl.org/dc/dcmitype/StillImage" />
        <dc:title></dc:title>
      </cc:Work>
    </rdf:RDF>
  </metadata>
  <defs
     id="defs3561" />
  <sodipodi:namedview
     pagecolor="#ffffff"
     bordercolor="#666666"
     borderopacity="1"
     objecttolerance="10"
     gridtolerance="10"
     guidetolerance="10"
     inkscape:pageopacity="0"
     inkscape:pageshadow="2"
     inkscape:window-width="1714"
     inkscape:window-height="916"
     id="namedview3559"
     showgrid="false"
     inkscape:zoom="4.3759247"
     inkscape:cx="63.838588"
     inkscape:cy="65.80413"
     inkscape:window-x="0"
     inkscape:window-y="31"
     inkscape:window-maximized="0"
     inkscape:current-layer="svg3557" />
  <g
     id="g4134"
     transform="translate(0,-6)">
    <path
       fill="#fc6d26"
       d="M 126.615,72.31 119.581,50.663 105.64,7.76 c -0.716,-2.206 -3.84,-2.206 -4.556,0 L 87.144,50.663 H 40.856 L 26.916,7.76 c -0.717,-2.206 -3.84,-2.206 -4.557,0 L 8.42,50.664 1.385,72.31 a 4.792,4.792 0 0 0 1.74,5.358 L 64,121.894 124.874,77.667 a 4.793,4.793 0 0 0 1.74,-5.357"
       id="path3541" />
    <path
       fill="#e24329"
       d="M 64,121.894 87.144,50.664 H 40.856 L 64,121.893 Z"
       id="path3543" />
    <path
       fill="#fc6d26"
       d="M 64,121.894 40.856,50.664 H 8.42 L 64,121.893 Z"
       id="path3545" />
    <path
       fill="#fca326"
       d="M 8.42,50.663 1.384,72.31 a 4.79,4.79 0 0 0 1.74,5.357 L 64,121.894 8.42,50.664 Z"
       id="path3547" />
    <path
       fill="#e24329"
       d="M 8.42,50.663 H 40.856 L 26.916,7.76 c -0.717,-2.206 -3.84,-2.206 -4.557,0 L 8.42,50.664 Z"
       id="path3549" />
    <path
       fill="#fc6d26"
       d="m 64,121.894 23.144,-71.23 h 32.437 L 64,121.893 Z"
       id="path3551" />
    <path
       fill="#fca326"
       d="m 119.58,50.663 7.035,21.647 a 4.79,4.79 0 0 1 -1.74,5.357 L 64,121.894 119.58,50.664 Z"
       id="path3553" />
    <path
       fill="#e24329"
       d="M 119.58,50.663 H 87.145 l 13.94,-42.902 c 0.717,-2.206 3.84,-2.206 4.557,0 l 13.94,42.903 z"
       id="path3555" />
  </g>
</svg>
