<svg width="44" height="44" viewBox="0 0 44 44" fill="none" xmlns="http://www.w3.org/2000/svg">
  <g shape-rendering="crispEdges">
    <rect x="8" y="0" width="4" height="4" fill="#5555FF"/>
    <rect x="32" y="0" width="4" height="4" fill="#5555FF"/>
    <rect x="12" y="4" width="4" height="4" fill="#5555FF"/>
    <rect x="28" y="4" width="4" height="4" fill="#5555FF"/>
    <rect x="12" y="8" width="4" height="4" fill="#5555FF"/>
    <rect x="16" y="8" width="4" height="4" fill="#3333DD"/>
    <rect x="20" y="8" width="4" height="4" fill="#5555FF"/>
    <rect x="24" y="8" width="4" height="4" fill="#3333DD"/>
    <rect x="28" y="8" width="4" height="4" fill="#5555FF"/>
    <rect x="8" y="12" width="4" height="4" fill="#5555FF"/>
    <rect x="12" y="12" width="4" height="4" fill="#5555FF"/>
    <rect x="16" y="12" width="4" height="4" fill="#5555FF"/>
    <rect x="20" y="12" width="4" height="4" fill="#5555FF"/>
    <rect x="24" y="12" width="4" height="4" fill="#5555FF"/>
    <rect x="28" y="12" width="4" height="4" fill="#5555FF"/>
    <rect x="32" y="12" width="4" height="4" fill="#5555FF"/>
    <rect x="4" y="16" width="4" height="4" fill="#5555FF"/>
    <rect x="8" y="16" width="4" height="4" fill="#5555FF"/>
    <rect x="12" y="16" width="4" height="4" fill="#F4F4F4"/>
    <rect x="16" y="16" width="4" height="4" fill="#F4F4F4"/>
    <rect x="20" y="16" width="4" height="4" fill="#5555FF"/>
    <rect x="24" y="16" width="4" height="4" fill="#5555FF"/>
    <rect x="28" y="16" width="4" height="4" fill="#F4F4F4"/>
    <rect x="32" y="16" width="4" height="4" fill="#F4F4F4"/>
    <rect x="36" y="16" width="4" height="4" fill="#5555FF"/>
    <rect x="4" y="20" width="4" height="4" fill="#5555FF"/>
    <rect x="8" y="20" width="4" height="4" fill="#5555FF"/>
    <rect x="12" y="20" width="4" height="4" fill="#F4F4F4"/>
    <rect x="16" y="20" width="4" height="4" fill="#FF55FF"/>
    <rect x="20" y="20" width="4" height="4" fill="#5555FF"/>
    <rect x="24" y="20" width="4" height="4" fill="#5555FF"/>
    <rect x="28" y="20" width="4" height="4" fill="#F4F4F4"/>
    <rect x="32" y="20" width="4" height="4" fill="#FF55FF"/>
    <rect x="36" y="20" width="4" height="4" fill="#5555FF"/>
    <rect x="0" y="24" width="4" height="4" fill="#3333DD"/>
    <rect x="4" y="24" width="4" height="4" fill="#3333DD"/>
    <rect x="8" y="24" width="4" height="4" fill="#3333DD"/>
    <rect x="12" y="24" width="4" height="4" fill="#3333DD"/>
    <rect x="16" y="24" width="4" height="4" fill="#3333DD"/>
    <rect x="20" y="24" width="4" height="4" fill="#3333DD"/>
    <rect x="24" y="24" width="4" height="4" fill="#3333DD"/>
    <rect x="28" y="24" width="4" height="4" fill="#3333DD"/>
    <rect x="32" y="24" width="4" height="4" fill="#3333DD"/>
    <rect x="36" y="24" width="4" height="4" fill="#3333DD"/>
    <rect x="40" y="24" width="4" height="4" fill="#3333DD"/>
    <rect x="8" y="28" width="4" height="4" fill="#3333DD"/>
    <rect x="16" y="28" width="4" height="4" fill="#5555FF"/>
    <rect x="24" y="28" width="4" height="4" fill="#5555FF"/>
    <rect x="32" y="28" width="4" height="4" fill="#3333DD"/>
    <rect x="8" y="32" width="4" height="4" fill="#3333DD"/>
    <rect x="16" y="32" width="4" height="4" fill="#5555FF"/>
    <rect x="24" y="32" width="4" height="4" fill="#5555FF"/>
    <rect x="32" y="32" width="4" height="4" fill="#3333DD"/>
    <rect x="16" y="36" width="4" height="4" fill="#5555FF"/>
    <rect x="24" y="36" width="4" height="4" fill="#5555FF"/>
    <rect x="12" y="40" width="4" height="4" fill="#5555FF"/>
    <rect x="16" y="40" width="4" height="4" fill="#5555FF"/>
    <rect x="24" y="40" width="4" height="4" fill="#5555FF"/>
    <rect x="28" y="40" width="4" height="4" fill="#5555FF"/>
  </g>
</svg>
